<?xml version="1.0" encoding="UTF-8"?>
<!DOCTYPE svg PUBLIC "-//W3C//DTD SVG 1.1//EN" "http://www.w3.org/Graphics/SVG/1.1/DTD/svg11.dtd">
<!-- Creator: CorelDRAW 2018 (64 Bit) -->
<svg xmlns="http://www.w3.org/2000/svg" xml:space="preserve" width="1500mm" height="1500mm" version="1.1" style="shape-rendering:geometricPrecision; text-rendering:geometricPrecision; image-rendering:optimizeQuality; fill-rule:evenodd; clip-rule:evenodd"
viewBox="0 0 150000 150000"
 xmlns:xlink="http://www.w3.org/1999/xlink">
 <defs>
  <style type="text/css">
   <![CDATA[
    .fil0 {fill:none}
    .fil1 {fill:black}
   ]]>
  </style>
 </defs>
 <g id="Camada_x0020_1">
  <metadata id="CorelCorpID_0Corel-Layer"/>
  <rect class="fil0" x="-2329.28" y="-1279.29" width="155786.71" height="154093.37"/>
  <g>
   <path class="fil1" d="M74963.61 108457.55c3214.76,0 5820.83,1658.41 5820.83,3704.17 0,2045.76 -2606.07,3704.17 -5820.83,3704.17 -3214.76,0 -5820.83,-1658.41 -5820.83,-3704.17 0,-2045.76 2606.07,-3704.17 5820.83,-3704.17zm-3720.7 7758.99l-10900.83 11888.62c0,0 13758.34,5080 29210.01,0 0,0 -10936.12,-11853.34 -10936.12,-11853.34 0,0 -3563.05,1375.83 -7373.06,-35.28zm-15174.99 -45184c484.58,958.03 759.1,1614.05 711.1,1792.32 -2383.18,853.81 -4374.44,1763.89 -4374.44,1763.89 -240.69,-193.99 -961.37,-889.91 -1956.52,-1875.26 2305.02,-777.87 4259.96,-1330.48 5619.86,-1680.95zm71449.52 19837.64c1952.7,2807.19 3201.14,5735.05 3399.72,8671.03l3171.7 0 2037.29 2381.26 -2037.29 2381.26 -3106.88 0c13.1,7683.47 -4364.27,14016.02 -10007.11,18988.57l2026.72 2014.13 -317.5 4550.83 -4683.13 317.5 -2681.84 -2680.47c-11139.99,7030.77 -26103.16,10426.53 -37355.06,10711.41l0 2319.51 -3045.94 2301.88 -3045.94 -2301.88 0 -2346.94c-11412.01,-385.23 -26297.7,-3607.79 -37406.65,-10598.75l-2562.13 2560.82 -4683.13 -317.5 -317.5 -4550.83 1908.44 -1896.59c-5577.91,-4934.07 -9394.98,-11228.31 -9979.5,-19071.69l-3033.21 0 -2037.29 -2381.26 2037.29 -2381.26 3216.68 0c478.58,-3123.28 1543.98,-5979.14 3048.87,-8578.81 -3646.97,-1458.53 -6897.8,-2623.6 -9064.77,-3215.03 0,0 4039.31,-881.95 4938.9,-1164.17 -52.92,-4709.59 -299.86,-9719.03 -176.39,-12453.06l-4621.39 -6279.45c0,0 6596.94,2434.17 6596.94,2434.17 9842.51,-3862.92 18326.81,-5044.72 18326.81,-5044.72 0,0 -35.27,-3633.62 405.7,-4656.67 0,0 7121.46,7288.92 11214.18,11370.58 2105.11,-648.23 4143.97,-1169.35 6049.16,-1568.5 -2236.04,-4240.19 -7354.72,-12578.03 -8514.45,-14317.64 0,0 2081.39,740.84 2081.39,740.84l-1093.61 -8995.84 -2257.78 -6526.39c0,0 4427.37,3227.92 5326.95,4092.22 1516.95,-846.67 5362.22,-1411.11 5362.22,-1411.11l635 -6138.33c0,0 1799.17,3157.35 2363.61,4233.33 388.05,-6632.22 -2751.67,-19720.28 -2751.67,-19720.28l3492.51 3845.27c0,0 1799.16,-335.14 3386.66,-211.66 2681.11,-7443.61 9172.23,-8360.84 9172.23,-8360.84l2010.83 -10442.22c0,0 2046.11,10512.78 2046.11,10512.78 6738.05,776.11 9295.7,8413.74 9295.7,8413.74l3298.47 -17.63c0,0 2521.49,-3173.24 3598.34,-4021.67 -1887.36,3298.47 -3219.1,19845.96 -2901.6,20022.35 0,0 2037.29,-4076.79 2372.43,-4253.17 158.75,246.94 546.81,4621.38 740.84,6208.89 1322.92,-105.83 5397.5,1340.55 5397.5,1340.55 0,0 3880.55,-3227.92 5185.83,-4198.05 0,0 -2434.16,6667.5 -2434.16,6667.5l-987.78 9101.67c0,0 3457.22,-1552.23 2610.55,-1164.17 -638.59,292.69 -6017.77,9896.74 -8621.01,14599.86 1652.2,264.04 3562.42,770.95 5625.01,1486.29 3985.95,-4041.6 11251.01,-11288.37 11251.01,-11288.37 0,0 740.83,3915.84 599.72,4691.94 5662.08,529.16 14252.22,3615.98 18591.39,4797.78l6067.78 -2151.94 -4570.68 6374.26 -121.26 12217.13c0,0 3898.19,873.13 5009.44,1340.56 -1177.63,447.52 -4752.95,1370.56 -9483.27,3016.98zm-33318.45 -19844.45c-645.26,1168.17 -1048.57,1904.97 -1048.57,1904.97 2628.2,582.09 4691.95,1552.22 4480.28,1587.5 -49.4,8.23 675.65,-746.45 1816.32,-1908.37 -1811.16,-631.6 -3598.17,-1166.09 -5248.03,-1584.1zm32223.17 20231.51c-6834.51,2452.28 -15734.16,6349.52 -23323.4,12365.13 3527.78,4233.33 2822.22,8607.78 2822.22,8607.78l-23565.56 -141.11c-141.11,-3245.56 -3633.61,-3986.39 -3633.61,-3986.39l2681.11 -2751.67c0,0 342.8,-8614.24 352.78,-8607.78 -6808.61,-4409.73 -13617.23,-35.27 -13617.23,-35.27l458.61 8643.05c0,0 2575.28,2786.95 2575.28,2786.95 -4021.67,1587.5 -3633.61,4092.22 -3633.61,4092.22 0,0 -23106.96,211.67 -23424.46,0 -317.5,-211.67 -105.83,-5856.11 2681.12,-8466.67 -1818.95,-2566.46 -13898.2,-8397.57 -23683,-12378.17 -1457.06,2497.44 -2459.26,5253.71 -2819.65,8286.45l1273.66 1509.87 4471.46 740.84 -4471.46 740.84 -1380.55 1636.57c478.28,6776.87 4261.28,12754.64 10060.75,17649.06l915.95 -910.27 3307.29 105.83 4286.25 -2804.59 -2778.13 4392.09 7.93 3327.92c9879.92,6043.55 23105.36,9687.38 35886.27,10095.13l2454.39 -2179.87 591.55 -2207.68 591.55 2207.68 2399.4 2131.03c15669.29,-660.67 27537.07,-4670.39 36009.38,-10011.87l7.93 -3327.92 -2778.13 -4392.09 4286.25 2804.59 3307.29 -105.83 931.39 925.6c6277.48,-5525.26 9569.36,-11907.31 10031.56,-17694.96l-1383.8 -1640.42 -4471.46 -740.84 4471.46 -740.84 1277.15 -1514c-373.53,-2982.37 -1502.3,-5794.3 -3175.93,-8410.39zm-87193.66 -980.12c-927.19,198.1 -1828.39,400.88 -2662.45,602.07 -2330.37,-1362.76 -4838.44,-2717.65 -7515.66,-4023.84 1039.35,-309.32 2034.23,-590.78 2982.23,-846.78 2666.82,1537.98 5047.33,2949.11 7195.88,4268.55zm6471.7 4171.2c-1695.46,-1158.24 -3561.74,-2368.54 -5653.38,-3666.14 -953.12,223.3 -1796.54,444.4 -2536.39,655.43 2036.89,1217.8 3931.24,2437.44 5676.94,3629.85 910.5,-239.24 1736.09,-442.54 2512.83,-619.14zm4475.08 3235.57c-1162.87,-895.21 -2405.43,-1802.58 -3757.79,-2741.6 -863.84,177.51 -1724.4,370.5 -2568.55,580.65 1345.07,933.4 2597.47,1847.63 3754.16,2728.46 899.67,-216 1757.66,-403.59 2572.18,-567.51l0 0zm3750.61 3077.77c-1043.73,-914.58 -2134.58,-1818.34 -3304.9,-2732.21 -907.24,156.72 -1799.76,330 -2627.59,520.68 1274.4,980.38 2427.73,1916.64 3455.77,2788.67 878.38,-221.17 1700.2,-411.99 2476.72,-577.14l0 0zm552.87 489.37c906.37,810.35 1780.6,1632.03 2644.86,2479.38 -784.12,181.03 -1555.57,384.71 -2345.36,605.07l-299.5 -3084.45zm3051.06 2880.22c723.72,718.73 1442.88,1457.17 2170.62,2223.8 0,0 1.3,-0.3 3.76,-0.87 -783.93,183.72 -1612.97,385.17 -2463.8,602.3 -356.48,-465.85 -1062.15,-1249 -2100.02,-2268.71l2389.44 -556.52zm-2751.56 204.23c-785.65,-757.06 -1736.11,-1627.63 -2845.4,-2583.23 787.44,-171.23 1656.84,-340.78 2545.9,-501.22l299.5 3084.45zm-9978.97 -15145.34c-1171.72,208.6 -2447.01,448.73 -3724.02,704.89 -2241.32,-1586.12 -4545.41,-3104.56 -6836.42,-4458.81 1243.69,-309.19 2387.72,-570.46 3425.05,-790.83 2457.9,1335.14 4855.98,2892.19 7135.39,4544.75zm5584.49 4398.72c-1532.65,-1300.11 -3161.62,-2607.73 -4861.63,-3868.62 -1372.91,218.24 -2616.87,447.73 -3738.7,679.64 1737.74,1247.86 3432.4,2530.73 5047.95,3802.78 1213.86,-250.75 2344.2,-441.6 3552.38,-613.8zm542.83 3948.04c-1086.01,-913.46 -2234.68,-1855.98 -3430.74,-2808.15 1188.24,-226.73 2372.4,-425.56 3518.45,-600.84 1126,970.03 2196.2,1931.67 3200,2862.2l-3287.71 546.79zm6557.35 2590.81c-854.28,-847.36 -1791.77,-1755.89 -2801,-2700.96 -1043.78,135.22 -2182.73,294.2 -3319.88,478.55l6120.88 2222.41zm543.95 542.43c914.66,916.93 1730.94,1812.42 2415.16,2528.58 -956.54,119.58 -1856.74,214.09 -2723.58,399.21l308.42 -2927.79zm2851.9 2934.75c983.47,1036.02 1655.51,1764.19 1954.5,2052.09 -740.89,156.62 -1604.57,345.17 -2546.61,561.75 3.38,-0.78 5.18,-1.2 5.18,-1.2 -402.43,-468.84 -1137.07,-1229.95 -2140.93,-2203.19l2727.86 -409.45zm-3160.32 -6.96c-759.78,-726.8 -1649.16,-1553.64 -2646.04,-2452.39 1007.01,-175.61 2021.43,-337.61 2954.46,-475.4l-308.42 2927.79zm-6356.41 -5692.63c1126.96,954.5 2182,1873.81 3147.22,2735.14 1065.29,-215.26 2045.93,-381.76 2973.66,-512.74l-6120.88 -2222.4zm-1429.1 -9468.76c-0.75,-0.67 -1.14,-1.03 -1.14,-1.03 -337.17,-3.92 -1349.48,127.43 -2733.23,347.9 -1863.37,-1608.64 -3820.79,-3238.03 -5839.44,-4840.29 2081.97,-344.36 3206.04,-433.46 3206.04,-433.46 725.79,806.43 2785.35,2609.12 5367.77,4926.88zm5000.62 4589.14c-1488.24,-1408.26 -2966.15,-2757.07 -4326.09,-3982.57 0.55,0.5 0.84,0.75 0.84,0.75 -953.33,104.06 -1862.09,215 -2727.57,331.15 1548.2,1348.82 3026.96,2678.8 4416.66,3961.43 807.65,-99.66 1674.29,-200.16 2636.16,-310.76zm987.37 3736.75c-955.69,-926.1 -1978.53,-1898.44 -3058.81,-2902.86 911.37,-125.59 1783.28,-236.52 2596.08,-335.34 0,0 -0.37,-0.36 -1.08,-1.03 1008.42,962.46 2015.81,1948.76 2988.73,2939.04l-2524.92 300.19zm2961.73 147.12c928.33,956.58 1819.87,1914.1 2644.56,2854.73 -10.7,-11.83 -21.51,-24.15 -32.42,-36.93 -783.33,49.76 -1570.31,112.65 -2386.69,199.43l-225.45 -3017.23zm3038.58 3308.86c783.01,912.22 1497.74,1805.62 2116.23,2663.61 -716.27,15.7 -1389.88,48.82 -2030.44,97.48l-85.79 -2761.09zm2394.92 3057.27c445.74,641.63 833.78,1261.47 1151.92,1852.31 0,0 -545.69,100.51 -1462.39,286.22 -92.61,-230.41 -647.65,-927.83 -1587.3,-1978.99l1897.77 -159.54zm-2309.13 -296.18c-655.67,-719.87 -1458.68,-1572.98 -2389.8,-2531.3 1098.27,-143.19 1942.45,-228.87 2304.01,-229.79l85.79 2761.09zm-2898.92 -3052.72c-822.61,-838.42 -1733.78,-1748.04 -2721.99,-2712.06 1141.53,-137.18 2039.57,-237.78 2496.53,-305.16l225.46 3017.22zm-27068.39 -7531.76c-2666.86,-1320.57 -5543.58,-2585.75 -8614.76,-3725.98 1072.36,-371.98 2111.51,-717.69 3115.62,-1038.93 2531.09,1161.81 5106.55,2465.11 7656.42,3873.44 -1128.04,333.05 -1919.86,641.25 -2157.28,891.47zm9078.66 3236.08c-1891.26,-1215.9 -3836.45,-2388.94 -5803.09,-3502.22 -1452.31,508.07 -2105.29,855.91 -2105.29,855.91 2077.29,1065.17 4019.63,2159.05 5819.18,3246.34 744.73,-217.85 1438.26,-417.13 2089.2,-600.03zm4521.09 3064.9c-1259.86,-903.01 -2503.56,-1750.95 -3832.93,-2619.02 -679.87,201.45 -1340.53,416.04 -1974.17,644.76 1405.14,867.64 2718.18,1727.67 3935.06,2562.02 0,0 1695.65,-587.76 1872.04,-587.76zm2290.76 3605.27c-1045.08,-800.36 -2208.57,-1657.61 -3485.4,-2548.87 427.66,-252.42 1057.71,-448.54 1737.78,-664.95 1244.72,902.18 2318.38,1718.08 3468.8,2641.67 0,0 -1079.2,252.59 -1721.18,572.15zm2312.85 -120.96c1060.55,864.32 2029.61,1725.89 2986.06,2597.51 -527.54,152.83 -1031.59,347.64 -1531.67,578.56 -828.07,-701.42 -1934.68,-1630.78 -3099.99,-2539.47 351.24,-221 957.27,-451.93 1645.6,-636.6zm1924.93 3562.38c1361.99,1172.11 2137.1,1903.74 2274.94,1967.54 469.5,-134.02 939.98,-264.12 1407.74,-389.97 -694.21,-720.75 -1428.26,-1428.54 -2207.44,-2151.28 -512.66,179.27 -1010.8,359.77 -1475.24,573.71l0 0zm-1242.44 -8205.79c1200.44,-228.14 2298.47,-404.76 3287.71,-546.79l-3287.71 546.79zm4995.36 -774.47c1000.33,-124.13 1845.41,-215.06 2524.91,-300.19l-2524.91 300.19zm8395.24 6513.25c-554.47,39.49 -1196.38,90.95 -1897.78,159.54l1897.78 -159.54zm-3437.4 329.21c-871.53,107.4 -1794.31,241.38 -2727.86,409.45l2727.86 -409.45zm-3349.99 526.36c-803.67,157.56 -1608.67,341.49 -2389.44,556.52l2389.44 -556.52zm11280.53 -9114.06c-248.05,90.07 -509.48,187.52 -784.36,292.9 0,0 -242.3,-580.64 -665.76,-1587.92l1450.12 1295.02zm3418.11 -1775.48c44.93,282.93 79.08,526.9 101.41,727.82 0,0 -297.61,48.46 -902.2,209.41l800.79 -937.23zm-1687.03 -2882.91c368.32,-26.93 744.82,-52.2 1129.46,-75.8l-1129.46 75.8zm-1423.73 116.05c314.47,-28.43 635.64,-55.5 963.53,-81.2l-963.53 81.2zm-1537.86 156.02c333.56,-37.8 675.89,-73.82 1026.99,-108.04l-1026.99 108.04zm-1446.91 182.89c332.08,-46.69 674.43,-91.29 1027,-133.8l-1027 133.8zm3568.37 -3760.69c416.74,-14.14 841.26,-22.23 1273.53,-24.25l-1273.53 24.25zm-1613.41 87.95c351.89,-26.8 709.91,-48.82 1074.03,-66.06l-1074.03 66.06zm-1731.81 176.85c371.12,-48.13 749.93,-90.27 1136.42,-126.4l-1136.42 126.4zm-1601.17 253.87c365.22,-69.14 738.91,-131.68 1121.01,-187.62l-1121.01 187.62zm4752.82 -1263.32c423.18,-25.32 854.39,-46.07 1293.63,-62.24l-1293.63 62.24zm-1643.15 125.09c357.83,-33.38 722.05,-63.13 1092.61,-89.24l-1092.61 89.24zm-1762.56 200.73c376.65,-51.15 761.29,-97.76 1153.92,-139.8l-1153.92 139.8zm-494.1 70.41c-389.62,58.17 -770.38,121.41 -1142.27,189.7 -402.67,-942.2 -826.7,-1931.15 -1265.04,-2949.08l2407.31 2759.38zm1957.45 -7686.1c486.83,-39.71 1001.53,-79.76 1544.09,-120.11l-1544.09 120.11zm-2058.57 182c424.21,-41.02 879.66,-82.41 1366.35,-124.13l-1366.35 124.13zm-2116.32 234.76c395.64,-51.77 844.54,-104.14 1346.68,-157.11l-1346.68 157.11zm-1978.87 380.82c240.14,-92.47 672.14,-187.12 1295.99,-283.93l-1295.99 283.93zm5916.12 -1674.2c518.01,-28.93 1047.13,-50.69 1587.36,-65.24 -294.68,-1243.16 -592.47,-2487.56 -886.27,-3705.7l-701.09 3770.94zm-6288.85 820.86c-530.13,-1211.78 -1064.38,-2424.75 -1592.36,-3612.75 386.37,-88.38 852.04,-174.85 1396.98,-259.42l195.38 3872.17zm4175.32 -8531.39c590.03,-49.6 1197.47,-95.67 1822.25,-138.2 238.13,969.72 485.35,1982.92 737.07,3021.75l-2559.32 -2883.55zm-6169.61 4016.43c-461.92,-1034.31 -916.93,-2044.1 -1357.93,-3011.45 466.13,-94.85 953.98,-185.29 1463.55,-271.3l-105.62 3282.75zm5004.24 -8219.75c634.11,-47.21 1283.37,-88.67 1947.76,-124.37 241.06,959.3 506.24,2024.44 787.27,3163.34l-2735.03 -3038.97zm-6803.96 4243.32c-515.94,-1121.95 -1008.37,-2174.4 -1465.07,-3126.62 498.59,-106.83 1013.19,-207.59 1543.78,-302.25l-78.71 3428.87zm6483.32 -5395.32c636.03,-47.86 1294.61,-91.78 1975.73,-131.74l-1975.73 131.74zm3632.04 28646.09c301.72,-63.44 600.69,-120.69 896.9,-171.72 184.8,487.78 369.21,976.71 553.22,1466.74l-1450.12 -1295.02zm-200.3 -3042.22c301.74,782.48 602.44,1567.92 902.07,2356.3 -312.39,56.3 -616.06,119.19 -910.96,188.68 -283.3,-672.93 -626.92,-1487.34 -1018.11,-2411.17l1027 -133.81zm-1284.01 -3295.83c346.73,880.92 692.11,1765.68 1036.11,2654.25 -353.23,43.17 -702.56,90.14 -1047.98,140.88 -341.37,-804.98 -713.5,-1680.25 -1109.14,-2607.51l1121.01 -187.62zm-2675.31 -3438.84c413.27,-54.42 828.3,-105.8 1245.08,-154.12 389.08,966.44 776.5,1937.62 1162.23,2913.49l-2407.31 -2759.37zm-493.01 -4413.08c473.14,1143.72 943.88,2294.23 1412.19,3451.54 -419.5,69.26 -831.18,145.54 -1235.02,228.82 -479.3,-1110.79 -973.29,-2250.35 -1473.15,-3396.44l1295.98 -283.92zm-1864.1 -4441.58c508.79,1194.92 1014.87,2397.51 1518.23,3607.75 -452.64,80.57 -893.59,168.72 -1322.86,264.42l-195.37 -3872.17zm-1693.28 -3925.54c437.49,1001.14 873.02,2007.83 1306.58,3020.04 -517.74,86.23 -988.48,173.81 -1412.22,262.71l105.64 -3282.75zm-1826.64 -4122.55c468.51,1042.83 934.84,2091.85 1398.96,3147.05 -505.97,88.9 -998.53,182.85 -1477.68,281.82l78.72 -3428.87zm-512.47 -1136.26c-539.75,-1192.15 -1082.42,-2376.16 -1627.98,-3552.01 -1155.79,226.34 -1832.7,394.41 -1832.7,394.41 431.62,625.28 1088.9,1855.55 1890.44,3485.61 487.53,-115.63 1010.95,-224.98 1570.24,-328.01l0 0zm11815.49 27583.54c170.23,466.74 341.25,936.52 513.05,1409.32 287.2,-101.62 554.65,-192.71 802.49,-274.23l-1315.54 -1135.09zm-5562.77 -14908.88c-471.92,-1232.19 -936.27,-2435.24 -1393,-3609.14 439.61,-58.68 919.09,-116.4 1438.42,-173.17l-45.42 3782.31zm-1752.28 -4530.58c-404.97,-1036.29 -803.85,-2049.27 -1196.67,-3038.93 482.73,-72.53 983.06,-141.49 1500.98,-206.86l-304.31 3245.79zm-2866.41 -7195.15c417.94,1027.11 843.44,2083.16 1276.46,3168.12 492.74,-77.58 997.38,-150.7 1513.92,-219.35l-2790.38 -2948.77zm-1962.3 -4741.18c486.48,1154.05 984.48,2352.28 1493.97,3594.69 504.7,-78.68 1034.21,-153.03 1588.52,-223l-3082.49 -3371.69zm12143.76 31375.78c306.41,-47.8 609.84,-88.85 910.26,-123.15 135.67,419.27 270.78,838.7 405.28,1258.25l-1315.54 -1135.1zm-19.77 -2966.97c255.65,773.61 509.3,1547.69 760.92,2322.26 -317.83,36.52 -627.83,78.96 -930,127.29 -288.24,-789.23 -574.22,-1569.75 -857.91,-2341.52l1026.99 -108.03zm-1114.34 -3331.36c303.34,896.03 603.98,1792.69 901.9,2690 -354.08,31.85 -704.47,67.29 -1051.16,106.3 -332.19,-902.05 -661.25,-1792.03 -987.15,-2669.9l1136.41 -126.4zm-1390.47 -557.23c-366.24,-984.46 -728.5,-1953.49 -1086.72,-2907.1 413.62,-45.03 828.96,-87.08 1246,-126.15 334.69,963.74 666.23,1928.23 994.63,2893.45l-1153.91 139.8zm-1364.86 -7356.05c411.48,1149.76 818.47,2300.58 1220.95,3452.46 -426.16,47.57 -845.05,101.68 -1256.63,162.29 -443.22,-1176.47 -880.23,-2329.02 -1311,-3457.64l1346.68 -157.11zm-1627.91 -4479.57c441.7,1197.22 878.52,2395.6 1310.42,3595.13 -462.5,55.56 -914.44,117.96 -1355.84,187.18l45.42 -3782.31zm-1493.4 -3994.06c384.28,1014.3 765.05,2029.43 1142.27,3045.38 -512.09,65.95 -994.29,132.76 -1446.58,200.41l304.31 -3245.79zm-3170.71 -3949.36c509.16,-79.47 1031.89,-153.79 1568.2,-222.94 411.24,1056.33 818.64,2113.58 1222.17,3171.72l-2790.37 -2948.78zm-1962.3 -4741.18c500.16,-87.15 1049.4,-176.9 1639.61,-264.75 486.04,1210.95 967.01,2423.1 1442.87,3636.44l-3082.48 -3371.69zm13479.28 31208.39c116.9,403.41 230.22,798.86 339.97,1186.33 312.97,-98.99 589.18,-180.96 828.98,-248.5l-1168.95 -937.83zm-5974.52 -18615.13c421.71,1233.44 828.33,2433.27 1219.87,3599.46 458.3,-46.29 926.47,-86.21 1404.47,-119.75l-2624.34 -3479.71zm-331.83 -968.44c-342.01,-995.99 -693.58,-2013.3 -1054.72,-3051.92 547.83,-61.83 1113.8,-119.98 1697.88,-174.44l-643.16 3226.36zm-1406.62 -4062.06c-362.61,-1038.95 -734.56,-2098.7 -1115.82,-3179.22 601.64,-67.31 1219.25,-128.56 1852.82,-183.74l-737 3362.96zm-2831.98 -8007.39c447.98,1251.67 884.75,2478.31 1310.27,3679.94 604.91,-65.92 1236.07,-127.24 1893.47,-183.95l-3203.74 -3495.99zm10544.95 31653.02c302.77,-28.39 602.46,-49.8 899.03,-64.23 90.06,333.43 180.04,667.46 269.92,1002.06l-1168.95 -937.83zm119.11 -2928.76c212.68,774.97 424.87,1553.18 636.55,2334.57 -309.22,18.55 -611.93,42.02 -908.14,70.37 -218.75,-748.08 -449.41,-1522.67 -691.94,-2323.74l963.53 -81.2zm-919.31 -3318.69c249.81,893.44 498.97,1791.25 747.42,2693.43 -331.6,19.81 -660.15,42.6 -985.63,68.35 -265.11,-868.47 -543.72,-1767.05 -835.82,-2695.72l1074.03 -66.06zm-1297.33 -641.45c-296.05,-934.84 -605.37,-1899.18 -927.91,-2893.06 398.46,-34.11 798.48,-65.53 1200.02,-94.24 274.3,960.83 547.8,1926.85 820.49,2898.06l-1092.6 89.24zm-991.45 -7357.08c338.15,1154.51 675.09,2316.76 1010.82,3486.76 -417.69,26.51 -829.03,58.7 -1234.03,96.56 -364.88,-1117.03 -745.93,-2270.11 -1143.13,-3459.2l1366.34 -124.12zm-2885.54 -4369.15c485.69,-48.11 1001.09,-95.52 1546.22,-142.21 360.72,1198.64 720.09,2405.96 1078.12,3621.92l-2624.34 -3479.71zm311.34 -4194.8c311.72,1010.27 622.47,2026.91 932.21,3049.9 -550.21,58.1 -1075.34,116.93 -1575.39,176.46l643.18 -3226.36zm-1312.79 -4198.65c333.36,1052.1 665.63,2111.35 996.77,3177.74 -591.32,56.71 -1169.25,118.45 -1733.77,185.21l737 -3362.95zm-3568.98 -4644.44c635.15,-81.93 1304.71,-158.97 2000.89,-226.77 402.54,1230.71 803.49,2471.64 1202.85,3722.76l-3203.74 -3495.99zm12010.5 32509.54c-55.75,-275.23 -122.45,-586.93 -200.12,-935.07 337.72,-9.93 671.37,-10.65 1000.91,-2.15l-800.79 937.22zm-886.24 -3820.13c221.71,894.53 409.87,1677.49 564.47,2348.86 335.26,-15.44 677.91,-25.31 1027.95,-29.62 -116.14,-661.87 -273.28,-1471.23 -462.95,-2395.04l-1129.47 75.8zm-840.13 -3305.73c253.67,979.08 482.47,1875.4 686.36,2688.9 383.13,-19.44 770.28,-35.01 1161.43,-46.68 -171.18,-818.71 -364.3,-1714.16 -574.25,-2666.47l-1273.54 24.25zm-193.57 -744.65c-235.46,-902.95 -490.43,-1870.78 -764.9,-2903.44 463.87,-29.92 929.8,-56.29 1397.77,-79.08 231.3,1008.58 453.01,1987.69 660.77,2920.28l-1293.64 62.24zm-1942.36 -7289.87c335.31,1238.64 649.94,2408.45 943.85,3509.44 471.02,-23.19 949.91,-39.38 1436.61,-48.56 -270.02,-1169.8 -550.99,-2371.93 -836.36,-3580.99l-1544.1 120.11zm-237.64 -876.62c-314.16,-1157.29 -645.49,-2371.69 -993.98,-3643.15 538.79,-43.22 1103.81,-85.83 1695.06,-127.79l-701.08 3770.94zm-2113.52 -7710.53c289.59,1048.06 569.41,2063.56 839.42,3046.52 550.28,-54.97 1123.58,-109.3 1719.88,-162.97l-2559.3 -2883.55zm-1165.38 -4203.32c302.99,1089.46 596.93,2148.76 881.78,3177.88 604.39,-51.31 1222.14,-97.62 1853.24,-138.91l-2735.02 -3038.97zm-320.64 -1152c-337.56,-1211.89 -685.94,-2459.71 -1045.11,-3743.46 659.36,-50.33 1336.91,-90.94 2026.8,-118.53 82.93,203.56 455.09,1605.91 994.04,3730.25l-1975.73 131.74zm46935.1 25201.04c927.19,198.1 1828.39,400.88 2662.45,602.07 2330.37,-1362.76 4838.44,-2717.65 7515.66,-4023.84 -1039.35,-309.32 -2034.23,-590.78 -2982.23,-846.78 -2666.82,1537.98 -5047.33,2949.11 -7195.88,4268.55zm-6471.7 4171.2c1695.46,-1158.24 3561.74,-2368.54 5653.38,-3666.14 953.12,223.3 1796.54,444.4 2536.39,655.43 -2036.89,1217.8 -3931.24,2437.44 -5676.94,3629.85 -910.5,-239.24 -1736.09,-442.54 -2512.83,-619.14zm-4475.08 3235.57c1162.87,-895.21 2405.43,-1802.58 3757.79,-2741.6 863.84,177.51 1724.4,370.5 2568.55,580.65 -1345.07,933.4 -2597.47,1847.63 -3754.16,2728.46 -899.67,-216 -1757.66,-403.59 -2572.18,-567.51l0 0zm-3750.61 3077.77c1043.73,-914.58 2134.58,-1818.34 3304.9,-2732.21 907.24,156.72 1799.76,330 2627.59,520.68 -1274.4,980.38 -2427.73,1916.64 -3455.77,2788.67 -878.38,-221.17 -1700.2,-411.99 -2476.72,-577.14l0 0zm-552.87 489.37c-906.37,810.35 -1780.6,1632.03 -2644.86,2479.38 784.12,181.03 1555.57,384.71 2345.36,605.07l299.5 -3084.45zm-3051.06 2880.22c-723.72,718.73 -1442.88,1457.17 -2170.62,2223.8 0,0 -1.3,-0.3 -3.76,-0.87 783.93,183.72 1612.97,385.17 2463.8,602.3 356.48,-465.85 1062.15,-1249 2100.02,-2268.71l-2389.44 -556.52zm2751.56 204.23c785.65,-757.06 1736.11,-1627.63 2845.4,-2583.23 -787.44,-171.23 -1656.84,-340.78 -2545.9,-501.22l-299.5 3084.45zm9978.97 -15145.34c1171.72,208.6 2447.01,448.73 3724.02,704.89 2241.32,-1586.12 4545.41,-3104.56 6836.42,-4458.81 -1243.69,-309.19 -2387.72,-570.46 -3425.05,-790.83 -2457.9,1335.14 -4855.98,2892.19 -7135.39,4544.75zm-5584.49 4398.72c1532.65,-1300.11 3161.62,-2607.73 4861.63,-3868.62 1372.91,218.24 2616.87,447.73 3738.7,679.64 -1737.74,1247.86 -3432.4,2530.73 -5047.95,3802.78 -1213.86,-250.75 -2344.2,-441.6 -3552.38,-613.8zm-542.83 3948.04c1086.01,-913.46 2234.68,-1855.98 3430.74,-2808.15 -1188.24,-226.73 -2372.4,-425.56 -3518.45,-600.84 -1126,970.03 -2196.2,1931.67 -3200,2862.2l3287.71 546.79zm-6557.35 2590.81c854.28,-847.36 1791.77,-1755.89 2801,-2700.96 1043.78,135.22 2182.73,294.2 3319.88,478.55l-6120.88 2222.41zm-543.95 542.43c-914.66,916.93 -1730.94,1812.42 -2415.16,2528.58 956.54,119.58 1856.74,214.09 2723.58,399.21l-308.42 -2927.79zm-2851.9 2934.75c-983.47,1036.02 -1655.51,1764.19 -1954.5,2052.09 740.89,156.62 1604.57,345.17 2546.61,561.75 -3.38,-0.78 -5.18,-1.2 -5.18,-1.2 402.43,-468.84 1137.07,-1229.95 2140.93,-2203.19l-2727.86 -409.45zm3160.32 -6.96c759.78,-726.8 1649.16,-1553.64 2646.04,-2452.39 -1007.01,-175.61 -2021.43,-337.61 -2954.46,-475.4l308.42 2927.79zm6356.41 -5692.63c-1126.96,954.5 -2182,1873.81 -3147.22,2735.14 -1065.29,-215.26 -2045.93,-381.76 -2973.66,-512.74l6120.88 -2222.4zm1429.1 -9468.76c0.75,-0.67 1.14,-1.03 1.14,-1.03 337.17,-3.92 1349.48,127.43 2733.23,347.9 1863.37,-1608.64 3820.79,-3238.03 5839.44,-4840.29 -2081.97,-344.36 -3206.04,-433.46 -3206.04,-433.46 -725.79,806.43 -2785.35,2609.12 -5367.77,4926.88zm-5000.62 4589.14c1488.24,-1408.26 2966.15,-2757.07 4326.09,-3982.57 -0.55,0.5 -0.84,0.75 -0.84,0.75 953.33,104.06 1862.09,215 2727.57,331.15 -1548.2,1348.82 -3026.96,2678.8 -4416.66,3961.43 -807.65,-99.66 -1674.29,-200.16 -2636.16,-310.76zm-987.37 3736.75c955.69,-926.1 1978.53,-1898.44 3058.81,-2902.86 -911.37,-125.59 -1783.28,-236.52 -2596.08,-335.34 0,0 0.37,-0.36 1.08,-1.03 -1008.42,962.46 -2015.81,1948.76 -2988.73,2939.04l2524.92 300.19zm-2961.73 147.12c-928.33,956.58 -1819.87,1914.1 -2644.56,2854.73 10.7,-11.83 21.51,-24.15 32.42,-36.93 783.33,49.76 1570.31,112.65 2386.69,199.43l225.45 -3017.23zm-3038.58 3308.86c-783.01,912.22 -1497.74,1805.62 -2116.23,2663.61 716.27,15.7 1389.88,48.82 2030.44,97.48l85.79 -2761.09zm-2394.92 3057.27c-445.74,641.63 -833.78,1261.47 -1151.92,1852.31 0,0 545.69,100.51 1462.39,286.22 92.61,-230.41 647.65,-927.83 1587.3,-1978.99l-1897.77 -159.54zm2309.13 -296.18c655.67,-719.87 1458.68,-1572.98 2389.8,-2531.3 -1098.27,-143.19 -1942.45,-228.87 -2304.01,-229.79l-85.79 2761.09zm2898.92 -3052.72c822.61,-838.42 1733.78,-1748.04 2721.99,-2712.06 -1141.53,-137.18 -2039.57,-237.78 -2496.53,-305.16l-225.46 3017.22zm27068.39 -7531.76c2666.86,-1320.57 5543.58,-2585.75 8614.76,-3725.98 -1072.36,-371.98 -2111.51,-717.69 -3115.62,-1038.93 -2531.09,1161.81 -5106.55,2465.11 -7656.42,3873.44 1128.04,333.05 1919.86,641.25 2157.28,891.47zm-9078.66 3236.08c1891.26,-1215.9 3836.45,-2388.94 5803.09,-3502.22 1452.31,508.07 2105.29,855.91 2105.29,855.91 -2077.29,1065.17 -4019.63,2159.05 -5819.18,3246.34 -744.73,-217.85 -1438.26,-417.13 -2089.2,-600.03zm-4521.09 3064.9c1259.86,-903.01 2503.56,-1750.95 3832.93,-2619.02 679.87,201.45 1340.53,416.04 1974.17,644.76 -1405.14,867.64 -2718.18,1727.67 -3935.06,2562.02 0,0 -1695.65,-587.76 -1872.04,-587.76zm-2290.76 3605.27c1045.08,-800.36 2208.57,-1657.61 3485.4,-2548.87 -427.66,-252.42 -1057.71,-448.54 -1737.78,-664.95 -1244.72,902.18 -2318.38,1718.08 -3468.8,2641.67 0,0 1079.2,252.59 1721.18,572.15zm-2312.85 -120.96c-1060.55,864.32 -2029.61,1725.89 -2986.06,2597.51 527.54,152.83 1031.59,347.64 1531.67,578.56 828.07,-701.42 1934.68,-1630.78 3099.99,-2539.47 -351.24,-221 -957.27,-451.93 -1645.6,-636.6zm-1924.93 3562.38c-1361.99,1172.11 -2137.1,1903.74 -2274.94,1967.54 -469.5,-134.02 -939.98,-264.12 -1407.74,-389.97 694.21,-720.75 1428.26,-1428.54 2207.44,-2151.28 512.66,179.27 1010.8,359.77 1475.24,573.71l0 0zm1242.44 -8205.79c-1200.44,-228.14 -2298.47,-404.76 -3287.71,-546.79l3287.71 546.79zm-4995.36 -774.47c-1000.33,-124.13 -1845.41,-215.06 -2524.91,-300.19l2524.91 300.19zm-8395.24 6513.25c554.47,39.49 1196.38,90.95 1897.78,159.54l-1897.78 -159.54zm3437.4 329.21c871.53,107.4 1794.31,241.38 2727.86,409.45l-2727.86 -409.45zm3349.99 526.36c803.67,157.56 1608.67,341.49 2389.44,556.52l-2389.44 -556.52zm-17402.63 -69563.89l1150.84 3628.55c724.58,92.96 1413.19,281.94 2076.85,541.46l2183.97 -2768.72 -852.71 3404.04c501.29,300.07 971.58,648.94 1403.78,1040.99l2852.25 -1526.1 -1980.99 2437.55c357.49,431.74 675.47,899.36 947.74,1397.93l2885.21 -420.51 -2326.17 1664.36c109.03,303.35 199,601.08 275.55,920.39 1251.18,270.91 2520.63,604.23 3773.27,993.33 172.12,-602.59 293.45,-957.69 353.36,-1017.6l-1605.14 -299.87c-585.22,-5692.75 -5380.94,-10020.73 -11103.69,-10020.73 -5722.75,0 -10518.47,4327.98 -11103.69,10020.73l-1393.45 299.87 221.4 1002.85c1236.12,-383.97 2424.79,-696.56 3659.48,-964.56 74.48,-310.67 164.85,-614.19 270.1,-909.78l-2317.52 -1674.26 2882.28 411.46c267.47,-490.63 579.19,-951.31 929.24,-1377.4l-2002.3 -2463.76 2879.27 1540.56c425.85,-388.18 888.91,-734.31 1382.38,-1033l-858.33 -3426.49 2183.97 2768.72c651.74,-257.87 1339.25,-440.08 2050.54,-537.19l1147.9 -3632.77 34.61 -0.05zm-7691.36 10146.38c1264.34,-3148.12 4314.28,-5206.89 7706.81,-5206.89 3392.53,0 6438.11,2047.94 7702.45,5196.06 -1170.03,-226.91 -2339.6,-402.09 -3508.89,-525.44 -491.98,-2700.79 -7839.16,-3056.01 -8386.67,4.86 -1170.9,125 -2342.07,302.11 -3513.7,531.41zm8681.6 10560.81c164.66,-3992.39 351.34,-7327.9 559.27,-9314.28 381.05,-79.85 762.12,-187.86 1143.18,-324.02 293.3,17 586.57,36.71 879.8,59.12 -280.7,3351.95 -545.05,6640.42 -791.77,9823.46 -596.9,-119.41 -1193.7,-200.83 -1790.48,-244.28zm-808.41 31301.4c-15.34,902.07 -28.51,1707.02 -39.47,2395.73 153.02,4.28 306.08,13.17 459.18,26.69 30,-704.74 67.16,-1501.73 111.29,-2383.85 -177.05,-19.32 -354.04,-32.18 -531,-38.57zm12.09 -704.58c14.5,-837.76 30.71,-1747.29 48.58,-2715.44 217.35,7.98 434.73,23.59 652.18,46.82 -54.23,967.23 -102.98,1871.69 -146.1,2708.14 -184.94,-19.84 -369.81,-33.01 -554.66,-39.52zm62.37 -3456.42c17.88,-952.56 37.29,-1955.67 58.21,-2997.87 265.78,10.6 531.58,31.98 797.46,64.15 -63.33,1047.44 -121.95,2044.5 -175.71,2986.76 -226.71,-26.43 -453.35,-44.11 -679.96,-53.04zm73.74 -3764.29c24.21,-1185.64 50.33,-2416.67 78.3,-3677.09 326.69,13.69 653.42,41.8 980.2,84.34 -81.89,1270.87 -158.46,2489.49 -229.53,3650.21 -276.38,-28.89 -552.69,-48.05 -828.97,-57.46zm99.3 -4612.53c28.86,-1272.12 59.58,-2569.62 92.15,-3876.6 394.41,20.15 788.84,61.35 1183.36,123.6 -89.98,1322.94 -175.32,2604.43 -255.83,3839.68 -339.95,-43.74 -679.83,-72.63 -1019.68,-86.68zm114.94 -4780.54c27.19,-1066.54 55.62,-2136.92 85.25,-3202.57 452.53,26.77 905.1,80.61 1357.73,161.55 -76.13,1075.66 -149.59,2129.73 -220.32,3159.99 -407.62,-59.92 -815.15,-99.57 -1222.66,-118.97zm115.81 -4284.54c30.91,-1077.64 63.07,-2147.41 96.47,-3200.31 512.45,33.68 1024.91,98.29 1537.31,193.81 -78.73,1071.3 -155.14,2125.66 -229.16,3161.15 -468.27,-77.45 -936.46,-128.99 -1404.62,-154.65zm135.91 -4417.95c43.87,-1326.1 89.75,-2619.03 137.62,-3860.07 579.71,39.12 1159.46,113.28 1739.3,222.5 -99.31,1295.73 -195.62,2572.58 -288.82,3827.65 -529.44,-94.34 -1058.79,-157.69 -1588.1,-190.08zm2643.47 -4889.07c326.74,-3654.37 646.09,-7059.69 936.7,-9902.45 542.27,50.6 1084.44,110.48 1626.53,179.6 -178.3,1671.7 -601.14,5446.9 -1128.31,10150.21 -478.4,-166.86 -956.71,-309.31 -1434.92,-427.36zm-2549.67 30969.96c-68.8,894.43 -129.57,1690.96 -181.13,2372.6 188.96,19.35 378.05,45.76 567.3,79.25 64.76,-675.42 143.24,-1462.45 233.24,-2342.79 -206.62,-45.17 -413.07,-81.52 -619.41,-109.06zm54.07 -701.67c64.19,-831.28 134.39,-1735.26 209.82,-2700.28 236.33,31.83 472.78,72.7 709.37,122.61 -101.71,958.4 -196.2,1858.98 -281.92,2688.61 -212.57,-45.79 -424.97,-82.77 -637.27,-110.94zm266.95 -3430.03c73.95,-943.33 152.43,-1938.99 234.75,-2977.03 270.34,41.88 540.77,94.95 811.34,159.2 -111.24,1027.23 -217.64,2016.2 -317.82,2955.57 -242.9,-55.97 -485.65,-101.88 -728.27,-137.74zm296.52 -3754.59c92.76,-1166.24 190,-2380.99 290.79,-3630.92 311.84,52.09 623.77,117.36 935.83,195.78 -134.56,1225.27 -265.45,2422.67 -390.83,3576.99 -278.72,-57.2 -557.31,-104.49 -835.79,-141.85zm366.05 -4562.56c100.78,-1245.32 204.8,-2521.52 311.18,-3815.94 355.12,71.39 710.35,159.86 1065.69,265.42 -140.05,1263.5 -278.72,2518.18 -414.18,3749.1 -321.01,-79.44 -641.9,-145.63 -962.69,-198.58zm386.3 -4728.27c85.58,-1037.25 172.54,-2084.23 260.43,-3134.49 391,88.29 782.1,196.81 1173.29,325.59 -113.53,1018.8 -227.37,2042.08 -340.58,3061.95 -364.48,-100.56 -728.86,-184.91 -1093.14,-253.05zm352.26 -4228.87c88.18,-1048.04 177.14,-2097.18 266.46,-3141.07 427.95,99.41 855.88,220.39 1283.76,362.9 -113.6,1015.65 -228.89,2047.32 -344.83,3086.63 -401.89,-121.9 -803.69,-224.72 -1205.39,-308.46zm371.53 -4364.78c110.87,-1286.53 222.04,-2561.26 332.66,-3812.16 468.66,109.22 937.4,241.35 1406.25,396.42 -135.93,1212.76 -277.51,2476.25 -422.58,3772.25 -438.87,-140.13 -877.64,-258.97 -1316.33,-356.51zm2859.75 -4400.6c535.13,-4075.37 1011.51,-7710.93 1358.5,-10353.41 680.95,104.02 1361.81,222.68 2042.59,355.98 -648.11,3545.88 -1294.57,7147.95 -1921.47,10692.88 -493.36,-257.76 -986.56,-489.58 -1479.62,-695.45zm-4036.75 30351.47c-119.82,869.99 -227.95,1646.16 -322.15,2311.47 155.38,31.74 310.92,68.27 466.65,109.57 96.41,-653.44 212.43,-1416.46 346.2,-2277.29 -163.71,-53.44 -327.27,-101.37 -490.7,-143.75zm95.49 -695.04c112.74,-822.5 234.47,-1716.87 363.57,-2670.82 187.32,47.6 374.76,100.88 562.35,159.83 -153.71,955.5 -294.99,1843.86 -422.5,2656.77 -167.95,-54.09 -335.75,-102.69 -503.42,-145.78l0 0zm458.34 -3371.9c125.57,-930 257.45,-1910.79 394.29,-2931.94 218.62,62.95 437.35,133.22 656.21,210.8 -167.38,1018.33 -325.41,1987.41 -473.03,2900.62 -192.62,-66.15 -385.11,-125.98 -577.47,-179.48zm502.42 -3739.51c151.96,-1135.83 309.43,-2316.44 470.66,-3528.3 262.33,80.05 524.78,169.43 787.36,268.1 -200.46,1197.78 -392.08,2350.6 -573.6,3450.69 -228.27,-70.14 -456.41,-133.64 -684.42,-190.49zm593.73 -4453.91c160.47,-1207.54 324.17,-2442.07 489.46,-3690.66 311.63,112.09 623.39,237.33 935.29,375.73 -209.14,1230.95 -411.62,2429.67 -606.37,3589.48 -272.93,-101.09 -545.72,-192.6 -818.38,-274.55zm613.13 -4625.21c131.64,-995.3 264.04,-1997.43 396.34,-2999.97 356.72,141.69 713.59,300.22 1070.59,475.61 -168.11,978.21 -333,1941.75 -494.18,2887.69 -324.38,-133.94 -648.63,-255.05 -972.75,-363.33zm544.8 -4125.32c134.23,-1017.9 268.07,-2033.74 400.64,-3040.77 409.59,163.83 819.13,347.42 1228.63,550.72 -172.82,994.13 -343.14,1977.93 -510.5,2948.66 -373.06,-169.3 -745.98,-322.17 -1118.77,-458.61zm563.06 -4274.89c166.94,-1268.89 331.27,-2519.11 491.23,-3736.78 476.44,188.87 953.03,401.42 1429.78,637.67 -216.24,1227.19 -429.87,2445.82 -640.12,3651.14 -427.1,-204.17 -854.07,-388.18 -1280.89,-552.03zm-3549.31 30366.02c210.61,56.43 386.48,109.6 532.31,142.26l375.42 -1928.7c-209.24,-74.84 -417.99,-140.66 -626.32,-197.47 -150.66,914.61 -235.96,1653.18 -281.41,1983.91zm-542.4 -126.78c189.88,36.73 360.26,78.45 512.84,118.9 26.12,-337.17 124.92,-1073.4 256.28,-1990.74 -155.16,-41.15 -310.11,-77.33 -464.9,-108.53 -131.53,914.59 -244.44,1650.74 -304.22,1980.37zm-571.46 -83.47c191.46,18.85 367.94,45.34 530.45,75.68 15.74,-338.82 83.34,-1084.87 168.33,-2006.09 -185.14,-32.81 -370.08,-58.54 -554.88,-77.16 -64.11,853.97 -117.33,1610.55 -143.9,2007.57zm-412.57 -26.75c140.34,4.44 273.83,13.35 400.75,25.6 13.83,-531.64 44.18,-1316 71.56,-2014.41 -147.47,-13.15 -294.87,-21.81 -442.25,-25.97 -19.97,1282.71 -30.06,2014.78 -30.06,2014.78zm-363.68 85.99c0,0 -0.37,-29.9 -1.08,-87.23l1.08 87.23zm2667.07 -4749.46c-146.92,847.78 -276.69,1606.66 -386.25,2259.57 214.16,58.7 428.73,126.47 643.77,203.33l427.7 -2197.25c-228.78,-99.31 -457.17,-187.86 -685.22,-265.65zm119.88 -689.59c142.13,-815.34 297.86,-1700.96 464.86,-2643.91 248.72,82.46 497.74,174.9 747.08,277.36l-512.71 2633.94c-233.44,-99.72 -466.5,-188.85 -699.23,-267.39zm584.28 -3317.1c162.75,-916.19 335.09,-1880.91 515.04,-2883.18 292.15,109.86 584.57,232.75 877.32,368.71l-623.97 2826.37c-256.44,-115.14 -512.56,-219.1 -768.39,-311.9zm664.96 -3717.09c198.62,-1103.41 405.48,-2247.11 618.1,-3417.28 342.39,137 685.04,289.86 1028,458.57l-727.27 3294.26c-306.58,-123.82 -612.84,-235.67 -918.83,-335.55zm784.69 -4333.14c212.15,-1164.96 429.27,-2352.14 648.98,-3548.39 387.83,183.46 775.91,387.28 1164.26,611.47l-751.48 3403.84c-354.21,-171.74 -708.11,-327.38 -1061.76,-466.92zm823.93 -4499.81c174.28,-946.78 349.77,-1897.05 525.33,-2844.32 424.4,222.34 849.03,468.51 1273.91,738.53l-594.94 2694.83c-401.7,-215.99 -803.13,-412.34 -1204.3,-589.04zm738.57 -3993.22c182.13,-979.95 363.82,-1953.87 543.77,-2914.51 465.67,246.61 931.29,518.73 1396.8,816.34l-619.52 2806.21c-440.6,-258.91 -880.94,-494.92 -1321.05,-708.04zm775.08 -4147.08c233.17,-1240.24 462.39,-2452.42 684.73,-3620.33 511.48,270.55 1023.18,568.39 1535.11,893.52l-780.84 3536.88c-479.9,-295.45 -959.56,-565.48 -1439,-810.07zm2482.18 -3915.12l2500.74 -11327.36c-623.98,-156.85 -1247.97,-301.38 -1871.98,-433.6 -387.4,1578.43 -1206.51,5679.6 -2187.61,10805.71 519.41,289.64 1039.01,608.06 1558.85,955.25zm-10387.43 -3103.54c-164.66,-3992.39 -351.34,-7327.9 -559.27,-9314.28 -381.05,-79.85 -762.12,-187.86 -1143.18,-324.02 -293.3,17 -586.57,36.71 -879.8,59.12 280.7,3351.95 545.05,6640.42 791.77,9823.46 596.9,-119.41 1193.7,-200.83 1790.48,-244.28zm808.41 31301.4c15.34,902.07 28.51,1707.02 39.47,2395.73 -153.02,4.28 -306.08,13.17 -459.18,26.69 -30,-704.74 -67.16,-1501.73 -111.29,-2383.85 177.05,-19.32 354.04,-32.18 531,-38.57zm-12.09 -704.58c-14.5,-837.76 -30.71,-1747.29 -48.58,-2715.44 -217.35,7.98 -434.73,23.59 -652.18,46.82 54.23,967.23 102.98,1871.69 146.1,2708.14 184.94,-19.84 369.81,-33.01 554.66,-39.52zm-62.37 -3456.42c-17.88,-952.56 -37.29,-1955.67 -58.21,-2997.87 -265.78,10.6 -531.58,31.98 -797.46,64.15 63.33,1047.44 121.95,2044.5 175.71,2986.76 226.71,-26.43 453.35,-44.11 679.96,-53.04zm-73.74 -3764.29c-24.21,-1185.64 -50.33,-2416.67 -78.3,-3677.09 -326.69,13.69 -653.42,41.8 -980.2,84.34 81.89,1270.87 158.46,2489.49 229.53,3650.21 276.38,-28.89 552.69,-48.05 828.97,-57.46zm-99.3 -4612.53c-28.86,-1272.12 -59.58,-2569.62 -92.15,-3876.6 -394.41,20.15 -788.84,61.35 -1183.36,123.6 89.98,1322.94 175.32,2604.43 255.83,3839.68 339.95,-43.74 679.83,-72.63 1019.68,-86.68zm-114.94 -4780.54c-27.19,-1066.54 -55.62,-2136.92 -85.25,-3202.57 -452.53,26.77 -905.1,80.61 -1357.73,161.55 76.13,1075.66 149.59,2129.73 220.32,3159.99 407.62,-59.92 815.15,-99.57 1222.66,-118.97zm-115.81 -4284.54c-30.91,-1077.64 -63.07,-2147.41 -96.47,-3200.31 -512.45,33.68 -1024.91,98.29 -1537.31,193.81 78.73,1071.3 155.14,2125.66 229.16,3161.15 468.27,-77.45 936.46,-128.99 1404.62,-154.65zm-135.91 -4417.95c-43.87,-1326.1 -89.75,-2619.03 -137.62,-3860.07 -579.71,39.12 -1159.46,113.28 -1739.3,222.5 99.31,1295.73 195.62,2572.58 288.82,3827.65 529.44,-94.34 1058.79,-157.69 1588.1,-190.08zm-2643.47 -4889.07c-326.74,-3654.37 -646.09,-7059.69 -936.7,-9902.45 -542.27,50.6 -1084.44,110.48 -1626.53,179.6 178.3,1671.7 601.14,5446.9 1128.31,10150.21 478.4,-166.86 956.71,-309.31 1434.92,-427.36zm2549.67 30969.96c68.8,894.43 129.57,1690.96 181.13,2372.6 -188.96,19.35 -378.05,45.76 -567.3,79.25 -64.76,-675.42 -143.24,-1462.45 -233.24,-2342.79 206.62,-45.17 413.07,-81.52 619.41,-109.06zm-54.07 -701.67c-64.19,-831.28 -134.39,-1735.26 -209.82,-2700.28 -236.33,31.83 -472.78,72.7 -709.37,122.61 101.71,958.4 196.2,1858.98 281.92,2688.61 212.57,-45.79 424.97,-82.77 637.27,-110.94zm-266.95 -3430.03c-73.95,-943.33 -152.43,-1938.99 -234.75,-2977.03 -270.34,41.88 -540.77,94.95 -811.34,159.2 111.24,1027.23 217.64,2016.2 317.82,2955.57 242.9,-55.97 485.65,-101.88 728.27,-137.74zm-296.52 -3754.59c-92.76,-1166.24 -190,-2380.99 -290.79,-3630.92 -311.84,52.09 -623.77,117.36 -935.83,195.78 134.56,1225.27 265.45,2422.67 390.83,3576.99 278.72,-57.2 557.31,-104.49 835.79,-141.85zm-366.05 -4562.56c-100.78,-1245.32 -204.8,-2521.52 -311.18,-3815.94 -355.12,71.39 -710.35,159.86 -1065.69,265.42 140.05,1263.5 278.72,2518.18 414.18,3749.1 321.01,-79.44 641.9,-145.63 962.69,-198.58zm-386.3 -4728.27c-85.58,-1037.25 -172.54,-2084.23 -260.43,-3134.49 -391,88.29 -782.1,196.81 -1173.29,325.59 113.53,1018.8 227.37,2042.08 340.58,3061.95 364.48,-100.56 728.86,-184.91 1093.14,-253.05zm-352.26 -4228.87c-88.18,-1048.04 -177.14,-2097.18 -266.46,-3141.07 -427.95,99.41 -855.88,220.39 -1283.76,362.9 113.6,1015.65 228.89,2047.32 344.83,3086.63 401.89,-121.9 803.69,-224.72 1205.39,-308.46zm-371.53 -4364.78c-110.87,-1286.53 -222.04,-2561.26 -332.66,-3812.16 -468.66,109.22 -937.4,241.35 -1406.25,396.42 135.93,1212.76 277.51,2476.25 422.58,3772.25 438.87,-140.13 877.64,-258.97 1316.33,-356.51zm-2859.75 -4400.6c-535.13,-4075.37 -1011.51,-7710.93 -1358.5,-10353.41 -680.95,104.02 -1361.81,222.68 -2042.59,355.98 648.11,3545.88 1294.57,7147.95 1921.47,10692.88 493.36,-257.76 986.56,-489.58 1479.62,-695.45zm4036.75 30351.47c119.82,869.99 227.95,1646.16 322.15,2311.47 -155.38,31.74 -310.92,68.27 -466.65,109.57 -96.41,-653.44 -212.43,-1416.46 -346.2,-2277.29 163.71,-53.44 327.27,-101.37 490.7,-143.75zm-95.49 -695.04c-112.74,-822.5 -234.47,-1716.87 -363.57,-2670.82 -187.32,47.6 -374.76,100.88 -562.35,159.83 153.71,955.5 294.99,1843.86 422.5,2656.77 167.95,-54.09 335.75,-102.69 503.42,-145.78l0 0zm-458.34 -3371.9c-125.57,-930 -257.45,-1910.79 -394.29,-2931.94 -218.62,62.95 -437.35,133.22 -656.21,210.8 167.38,1018.33 325.41,1987.41 473.03,2900.62 192.62,-66.15 385.11,-125.98 577.47,-179.48zm-502.42 -3739.51c-151.96,-1135.83 -309.43,-2316.44 -470.66,-3528.3 -262.33,80.05 -524.78,169.43 -787.36,268.1 200.46,1197.78 392.08,2350.6 573.6,3450.69 228.27,-70.14 456.41,-133.64 684.42,-190.49zm-593.73 -4453.91c-160.47,-1207.54 -324.17,-2442.07 -489.46,-3690.66 -311.63,112.09 -623.39,237.33 -935.29,375.73 209.14,1230.95 411.62,2429.67 606.37,3589.48 272.93,-101.09 545.72,-192.6 818.38,-274.55zm-613.13 -4625.21c-131.64,-995.3 -264.04,-1997.43 -396.34,-2999.97 -356.72,141.69 -713.59,300.22 -1070.59,475.61 168.11,978.21 333,1941.75 494.18,2887.69 324.38,-133.94 648.63,-255.05 972.75,-363.33zm-544.8 -4125.32c-134.23,-1017.9 -268.07,-2033.74 -400.64,-3040.77 -409.59,163.83 -819.13,347.42 -1228.63,550.72 172.82,994.13 343.14,1977.93 510.5,2948.66 373.06,-169.3 745.98,-322.17 1118.77,-458.61zm-563.06 -4274.89c-166.94,-1268.89 -331.27,-2519.11 -491.23,-3736.78 -476.44,188.87 -953.03,401.42 -1429.78,637.67 216.24,1227.19 429.87,2445.82 640.12,3651.14 427.1,-204.17 854.07,-388.18 1280.89,-552.03zm3549.31 30366.02c-210.61,56.43 -386.48,109.6 -532.31,142.26l-375.42 -1928.7c209.24,-74.84 417.99,-140.66 626.32,-197.47 150.66,914.61 235.96,1653.18 281.41,1983.91zm542.4 -126.78c-189.88,36.73 -360.26,78.45 -512.84,118.9 -26.12,-337.17 -124.92,-1073.4 -256.28,-1990.74 155.16,-41.15 310.11,-77.33 464.9,-108.53 131.53,914.59 244.44,1650.74 304.22,1980.37zm571.46 -83.47c-191.46,18.85 -367.94,45.34 -530.45,75.68 -15.74,-338.82 -83.34,-1084.87 -168.33,-2006.09 185.14,-32.81 370.08,-58.54 554.88,-77.16 64.11,853.97 117.33,1610.55 143.9,2007.57zm412.57 -26.75c-140.34,4.44 -273.83,13.35 -400.75,25.6 -13.83,-531.64 -44.18,-1316 -71.56,-2014.41 147.47,-13.15 294.87,-21.81 442.25,-25.97 19.97,1282.71 30.06,2014.78 30.06,2014.78zm363.68 85.99c0,0 0.37,-29.9 1.08,-87.23l-1.08 87.23zm-2667.07 -4749.46c146.92,847.78 276.69,1606.66 386.25,2259.57 -214.16,58.7 -428.73,126.47 -643.77,203.33l-427.7 -2197.25c228.78,-99.31 457.17,-187.86 685.22,-265.65zm-119.88 -689.59c-142.13,-815.34 -297.86,-1700.96 -464.86,-2643.91 -248.72,82.46 -497.74,174.9 -747.08,277.36l512.71 2633.94c233.44,-99.72 466.5,-188.85 699.23,-267.39zm-584.28 -3317.1c-162.75,-916.19 -335.09,-1880.91 -515.04,-2883.18 -292.15,109.86 -584.57,232.75 -877.32,368.71l623.97 2826.37c256.44,-115.14 512.56,-219.1 768.39,-311.9zm-664.96 -3717.09c-198.62,-1103.41 -405.48,-2247.11 -618.1,-3417.28 -342.39,137 -685.04,289.86 -1028,458.57l727.27 3294.26c306.58,-123.82 612.84,-235.67 918.83,-335.55zm-784.69 -4333.14c-212.15,-1164.96 -429.27,-2352.14 -648.98,-3548.39 -387.83,183.46 -775.91,387.28 -1164.26,611.47l751.48 3403.84c354.21,-171.74 708.11,-327.38 1061.76,-466.92zm-823.93 -4499.81c-174.28,-946.78 -349.77,-1897.05 -525.33,-2844.32 -424.4,222.34 -849.03,468.51 -1273.91,738.53l594.94 2694.83c401.7,-215.99 803.13,-412.34 1204.3,-589.04zm-738.57 -3993.22c-182.13,-979.95 -363.82,-1953.87 -543.77,-2914.51 -465.67,246.61 -931.29,518.73 -1396.8,816.34l619.52 2806.21c440.6,-258.91 880.94,-494.92 1321.05,-708.04zm-775.08 -4147.08c-233.17,-1240.24 -462.39,-2452.42 -684.73,-3620.33 -511.48,270.55 -1023.18,568.39 -1535.11,893.52l780.84 3536.88c479.9,-295.45 959.56,-565.48 1439,-810.07zm-2482.18 -3915.12l-2500.74 -11327.36c623.98,-156.85 1247.97,-301.38 1871.98,-433.6 387.4,1578.43 1206.51,5679.6 2187.61,10805.71 -519.41,289.64 -1039.01,608.06 -1558.85,955.25zm15648.23 36627.86c248.05,90.07 509.48,187.52 784.36,292.9 0,0 242.3,-580.64 665.76,-1587.92l-1450.12 1295.02zm-3418.11 -1775.48c-44.93,282.93 -79.08,526.9 -101.41,727.82 0,0 297.61,48.46 902.2,209.41l-800.79 -937.23zm1687.03 -2882.91c-368.32,-26.93 -744.82,-52.2 -1129.46,-75.8l1129.46 75.8zm1423.73 116.05c-314.47,-28.43 -635.64,-55.5 -963.53,-81.2l963.53 81.2zm1537.86 156.02c-333.56,-37.8 -675.89,-73.82 -1026.99,-108.04l1026.99 108.04zm1446.91 182.89c-332.08,-46.69 -674.43,-91.29 -1027,-133.8l1027 133.8zm-3568.37 -3760.69c-416.74,-14.14 -841.26,-22.23 -1273.53,-24.25l1273.53 24.25zm1613.41 87.95c-351.89,-26.8 -709.91,-48.82 -1074.03,-66.06l1074.03 66.06zm1731.81 176.85c-371.12,-48.13 -749.93,-90.27 -1136.42,-126.4l1136.42 126.4zm1601.17 253.87c-365.22,-69.14 -738.91,-131.68 -1121.01,-187.62l1121.01 187.62zm-4752.82 -1263.32c-423.18,-25.32 -854.39,-46.07 -1293.63,-62.24l1293.63 62.24zm1643.15 125.09c-357.83,-33.38 -722.05,-63.13 -1092.61,-89.24l1092.61 89.24zm1762.56 200.73c-376.65,-51.15 -761.29,-97.76 -1153.92,-139.8l1153.92 139.8zm494.1 70.41c389.62,58.17 770.38,121.41 1142.27,189.7 402.67,-942.2 826.7,-1931.15 1265.04,-2949.08l-2407.31 2759.38zm-1957.45 -7686.1c-486.83,-39.71 -1001.53,-79.76 -1544.09,-120.11l1544.09 120.11zm2058.57 182c-424.21,-41.02 -879.66,-82.41 -1366.35,-124.13l1366.35 124.13zm2116.32 234.76c-395.64,-51.77 -844.54,-104.14 -1346.68,-157.11l1346.68 157.11zm1978.87 380.82c-240.14,-92.47 -672.14,-187.12 -1295.99,-283.93l1295.99 283.93zm-5916.12 -1674.2c-518.01,-28.93 -1047.13,-50.69 -1587.36,-65.24 294.68,-1243.16 592.47,-2487.56 886.27,-3705.7l701.09 3770.94zm6288.85 820.86c530.13,-1211.78 1064.38,-2424.75 1592.36,-3612.75 -386.37,-88.38 -852.04,-174.85 -1396.98,-259.42l-195.38 3872.17zm-4175.32 -8531.39c-590.03,-49.6 -1197.47,-95.67 -1822.25,-138.2 -238.13,969.72 -485.35,1982.92 -737.07,3021.75l2559.32 -2883.55zm6169.61 4016.43c461.92,-1034.31 916.93,-2044.1 1357.93,-3011.45 -466.13,-94.85 -953.98,-185.29 -1463.55,-271.3l105.62 3282.75zm-5004.24 -8219.75c-634.11,-47.21 -1283.37,-88.67 -1947.76,-124.37 -241.06,959.3 -506.24,2024.44 -787.27,3163.34l2735.03 -3038.97zm6803.96 4243.32c515.94,-1121.95 1008.37,-2174.4 1465.07,-3126.62 -498.59,-106.83 -1013.19,-207.59 -1543.78,-302.25l78.71 3428.87zm-6483.32 -5395.32c-636.03,-47.86 -1294.61,-91.78 -1975.73,-131.74l1975.73 131.74zm-3632.04 28646.09c-301.72,-63.44 -600.69,-120.69 -896.9,-171.72 -184.8,487.78 -369.21,976.71 -553.22,1466.74l1450.12 -1295.02zm200.3 -3042.22c-301.74,782.48 -602.44,1567.92 -902.07,2356.3 312.39,56.3 616.06,119.19 910.96,188.68 283.3,-672.93 626.92,-1487.34 1018.11,-2411.17l-1027 -133.81zm1284.01 -3295.83c-346.73,880.92 -692.11,1765.68 -1036.11,2654.25 353.23,43.17 702.56,90.14 1047.98,140.88 341.37,-804.98 713.5,-1680.25 1109.14,-2607.51l-1121.01 -187.62zm2675.31 -3438.84c-413.27,-54.42 -828.3,-105.8 -1245.08,-154.12 -389.08,966.44 -776.5,1937.62 -1162.23,2913.49l2407.31 -2759.37zm493.01 -4413.08c-473.14,1143.72 -943.88,2294.23 -1412.19,3451.54 419.5,69.26 831.18,145.54 1235.02,228.82 479.3,-1110.79 973.29,-2250.35 1473.15,-3396.44l-1295.98 -283.92zm1864.1 -4441.58c-508.79,1194.92 -1014.87,2397.51 -1518.23,3607.75 452.64,80.57 893.59,168.72 1322.86,264.42l195.37 -3872.17zm1693.28 -3925.54c-437.49,1001.14 -873.02,2007.83 -1306.58,3020.04 517.74,86.23 988.48,173.81 1412.22,262.71l-105.64 -3282.75zm1826.64 -4122.55c-468.51,1042.83 -934.84,2091.85 -1398.96,3147.05 505.97,88.9 998.53,182.85 1477.68,281.82l-78.72 -3428.87zm512.47 -1136.26c539.75,-1192.15 1082.42,-2376.16 1627.98,-3552.01 1155.79,226.34 1832.7,394.41 1832.7,394.41 -431.62,625.28 -1088.9,1855.55 -1890.44,3485.61 -487.53,-115.63 -1010.95,-224.98 -1570.24,-328.01l0 0zm-11815.49 27583.54c-170.23,466.74 -341.25,936.52 -513.05,1409.32 -287.2,-101.62 -554.65,-192.71 -802.49,-274.23l1315.54 -1135.09zm5562.77 -14908.88c471.92,-1232.19 936.27,-2435.24 1393,-3609.14 -439.61,-58.68 -919.09,-116.4 -1438.42,-173.17l45.42 3782.31zm1752.28 -4530.58c404.97,-1036.29 803.85,-2049.27 1196.67,-3038.93 -482.73,-72.53 -983.06,-141.49 -1500.98,-206.86l304.31 3245.79zm2866.41 -7195.15c-417.94,1027.11 -843.44,2083.16 -1276.46,3168.12 -492.74,-77.58 -997.38,-150.7 -1513.92,-219.35l2790.38 -2948.77zm1962.3 -4741.18c-486.48,1154.05 -984.48,2352.28 -1493.97,3594.69 -504.7,-78.68 -1034.21,-153.03 -1588.52,-223l3082.49 -3371.69zm-12143.76 31375.78c-306.41,-47.8 -609.84,-88.85 -910.26,-123.15 -135.67,419.27 -270.78,838.7 -405.28,1258.25l1315.54 -1135.1zm19.77 -2966.97c-255.65,773.61 -509.3,1547.69 -760.92,2322.26 317.83,36.52 627.83,78.96 930,127.29 288.24,-789.23 574.22,-1569.75 857.91,-2341.52l-1026.99 -108.03zm1114.34 -3331.36c-303.34,896.03 -603.98,1792.69 -901.9,2690 354.08,31.85 704.47,67.29 1051.16,106.3 332.19,-902.05 661.25,-1792.03 987.15,-2669.9l-1136.41 -126.4zm1390.47 -557.23c366.24,-984.46 728.5,-1953.49 1086.72,-2907.1 -413.62,-45.03 -828.96,-87.08 -1246,-126.15 -334.69,963.74 -666.23,1928.23 -994.63,2893.45l1153.91 139.8zm1364.86 -7356.05c-411.48,1149.76 -818.47,2300.58 -1220.95,3452.46 426.16,47.57 845.05,101.68 1256.63,162.29 443.22,-1176.47 880.23,-2329.02 1311,-3457.64l-1346.68 -157.11zm1627.91 -4479.57c-441.7,1197.22 -878.52,2395.6 -1310.42,3595.13 462.5,55.56 914.44,117.96 1355.84,187.18l-45.42 -3782.31zm1493.4 -3994.06c-384.28,1014.3 -765.05,2029.43 -1142.27,3045.38 512.09,65.95 994.29,132.76 1446.58,200.41l-304.31 -3245.79zm3170.71 -3949.36c-509.16,-79.47 -1031.89,-153.79 -1568.2,-222.94 -411.24,1056.33 -818.64,2113.58 -1222.17,3171.72l2790.37 -2948.78zm1962.3 -4741.18c-500.16,-87.15 -1049.4,-176.9 -1639.61,-264.75 -486.04,1210.95 -967.01,2423.1 -1442.87,3636.44l3082.48 -3371.69zm-13479.28 31208.39c-116.9,403.41 -230.22,798.86 -339.97,1186.33 -312.97,-98.99 -589.18,-180.96 -828.98,-248.5l1168.95 -937.83zm5974.52 -18615.13c-421.71,1233.44 -828.33,2433.27 -1219.87,3599.46 -458.3,-46.29 -926.47,-86.21 -1404.47,-119.75l2624.34 -3479.71zm331.83 -968.44c342.01,-995.99 693.58,-2013.3 1054.72,-3051.92 -547.83,-61.83 -1113.8,-119.98 -1697.88,-174.44l643.16 3226.36zm1406.62 -4062.06c362.61,-1038.95 734.56,-2098.7 1115.82,-3179.22 -601.64,-67.31 -1219.25,-128.56 -1852.82,-183.74l737 3362.96zm2831.98 -8007.39c-447.98,1251.67 -884.75,2478.31 -1310.27,3679.94 -604.91,-65.92 -1236.07,-127.24 -1893.47,-183.95l3203.74 -3495.99zm-10544.95 31653.02c-302.77,-28.39 -602.46,-49.8 -899.03,-64.23 -90.06,333.43 -180.04,667.46 -269.92,1002.06l1168.95 -937.83zm-119.11 -2928.76c-212.68,774.97 -424.87,1553.18 -636.55,2334.57 309.22,18.55 611.93,42.02 908.14,70.37 218.75,-748.08 449.41,-1522.67 691.94,-2323.74l-963.53 -81.2zm919.31 -3318.69c-249.81,893.44 -498.97,1791.25 -747.42,2693.43 331.6,19.81 660.15,42.6 985.63,68.35 265.11,-868.47 543.72,-1767.05 835.82,-2695.72l-1074.03 -66.06zm1297.33 -641.45c296.05,-934.84 605.37,-1899.18 927.91,-2893.06 -398.46,-34.11 -798.48,-65.53 -1200.02,-94.24 -274.3,960.83 -547.8,1926.85 -820.49,2898.06l1092.6 89.24zm991.45 -7357.08c-338.15,1154.51 -675.09,2316.76 -1010.82,3486.76 417.69,26.51 829.03,58.7 1234.03,96.56 364.88,-1117.03 745.93,-2270.11 1143.13,-3459.2l-1366.34 -124.12zm2885.54 -4369.15c-485.69,-48.11 -1001.09,-95.52 -1546.22,-142.21 -360.72,1198.64 -720.09,2405.96 -1078.12,3621.92l2624.34 -3479.71zm-311.34 -4194.8c-311.72,1010.27 -622.47,2026.91 -932.21,3049.9 550.21,58.1 1075.34,116.93 1575.39,176.46l-643.18 -3226.36zm1312.79 -4198.65c-333.36,1052.1 -665.63,2111.35 -996.77,3177.74 591.32,56.71 1169.25,118.45 1733.77,185.21l-737 -3362.95zm3568.98 -4644.44c-635.15,-81.93 -1304.71,-158.97 -2000.89,-226.77 -402.54,1230.71 -803.49,2471.64 -1202.85,3722.76l3203.74 -3495.99zm-12010.5 32509.54c55.75,-275.23 122.45,-586.93 200.12,-935.07 -337.72,-9.93 -671.37,-10.65 -1000.91,-2.15l800.79 937.22zm886.24 -3820.13c-221.71,894.53 -409.87,1677.49 -564.47,2348.86 -335.26,-15.44 -677.91,-25.31 -1027.95,-29.62 116.14,-661.87 273.28,-1471.23 462.95,-2395.04l1129.47 75.8zm840.13 -3305.73c-253.67,979.08 -482.47,1875.4 -686.36,2688.9 -383.13,-19.44 -770.28,-35.01 -1161.43,-46.68 171.18,-818.71 364.3,-1714.16 574.25,-2666.47l1273.54 24.25zm193.57 -744.65c235.46,-902.95 490.43,-1870.78 764.9,-2903.44 -463.87,-29.92 -929.8,-56.29 -1397.77,-79.08 -231.3,1008.58 -453.01,1987.69 -660.77,2920.28l1293.64 62.24zm1942.36 -7289.87c-335.31,1238.64 -649.94,2408.45 -943.85,3509.44 -471.02,-23.19 -949.91,-39.38 -1436.61,-48.56 270.02,-1169.8 550.99,-2371.93 836.36,-3580.99l1544.1 120.11zm237.64 -876.62c314.16,-1157.29 645.49,-2371.69 993.98,-3643.15 -538.79,-43.22 -1103.81,-85.83 -1695.06,-127.79l701.08 3770.94zm2113.52 -7710.53c-289.59,1048.06 -569.41,2063.56 -839.42,3046.52 -550.28,-54.97 -1123.58,-109.3 -1719.88,-162.97l2559.3 -2883.55zm1165.38 -4203.32c-302.99,1089.46 -596.93,2148.76 -881.78,3177.88 -604.39,-51.31 -1222.14,-97.62 -1853.24,-138.91l2735.02 -3038.97zm320.64 -1152c337.56,-1211.89 685.94,-2459.71 1045.11,-3743.46 -659.36,-50.33 -1336.91,-90.94 -2026.8,-118.53 -82.93,203.56 -455.09,1605.91 -994.04,3730.25l1975.73 131.74z"/>
  </g>
 </g>
</svg>
